<mxfile host="app.diagrams.net" modified="2022-04-19T10:56:44.118Z" agent="5.0 (Windows NT 10.0; Win64; x64) AppleWebKit/537.36 (KHTML, like Gecko) Chrome/100.0.4896.75 Safari/537.36 Edg/100.0.1185.39" etag="p9aGbBw1Ky8yGI6XayEx" version="17.2.4" type="github">
  <diagram id="Yx_2cfSWkmgC9ww6zX6g" name="Page-1">
    <mxGraphModel dx="1504" dy="644" grid="1" gridSize="10" guides="1" tooltips="1" connect="1" arrows="1" fold="1" page="1" pageScale="1" pageWidth="827" pageHeight="1169" math="0" shadow="0">
      <root>
        <mxCell id="0" />
        <mxCell id="1" parent="0" />
        <mxCell id="pLlUgZe4buy9df2eDDCw-6" value="" style="rounded=1;whiteSpace=wrap;html=1;" vertex="1" parent="1">
          <mxGeometry x="60" y="320" width="940" height="100" as="geometry" />
        </mxCell>
        <mxCell id="pLlUgZe4buy9df2eDDCw-7" value="" style="rounded=1;whiteSpace=wrap;html=1;" vertex="1" parent="1">
          <mxGeometry x="60" y="440" width="940" height="100" as="geometry" />
        </mxCell>
        <mxCell id="pLlUgZe4buy9df2eDDCw-5" value="a" style="rounded=1;whiteSpace=wrap;html=1;" vertex="1" parent="1">
          <mxGeometry x="60" y="195" width="940" height="100" as="geometry" />
        </mxCell>
        <mxCell id="a6WrI10o8rSXnvkZMW-7-1" value="PostController" style="rounded=1;whiteSpace=wrap;html=1;fillColor=#f8cecc;strokeColor=#b85450;" parent="1" vertex="1">
          <mxGeometry x="170" y="210" width="106" height="70" as="geometry" />
        </mxCell>
        <mxCell id="a6WrI10o8rSXnvkZMW-7-5" value="ApiResult" style="rounded=1;whiteSpace=wrap;html=1;fillColor=#d5e8d4;strokeColor=#82b366;" parent="1" vertex="1">
          <mxGeometry x="171" y="60" width="390" height="40" as="geometry" />
        </mxCell>
        <mxCell id="a6WrI10o8rSXnvkZMW-7-6" value="UserController" style="rounded=1;whiteSpace=wrap;html=1;fillColor=#f8cecc;strokeColor=#b85450;" parent="1" vertex="1">
          <mxGeometry x="308" y="210" width="106" height="70" as="geometry" />
        </mxCell>
        <mxCell id="a6WrI10o8rSXnvkZMW-7-7" value="TagController" style="rounded=1;whiteSpace=wrap;html=1;fillColor=#f8cecc;strokeColor=#b85450;" parent="1" vertex="1">
          <mxGeometry x="440" y="210" width="106" height="70" as="geometry" />
        </mxCell>
        <mxCell id="a6WrI10o8rSXnvkZMW-7-8" value="&lt;span&gt;Realationship&lt;br&gt;Controller&lt;/span&gt;" style="rounded=1;whiteSpace=wrap;html=1;fillColor=#f8cecc;strokeColor=#b85450;" parent="1" vertex="1">
          <mxGeometry x="580" y="210" width="106" height="70" as="geometry" />
        </mxCell>
        <mxCell id="a6WrI10o8rSXnvkZMW-7-11" value="ExceptionHandler" style="rounded=1;whiteSpace=wrap;html=1;fillColor=#ffe6cc;strokeColor=#d79b00;" parent="1" vertex="1">
          <mxGeometry x="171" y="130" width="249" height="40" as="geometry" />
        </mxCell>
        <mxCell id="a6WrI10o8rSXnvkZMW-7-12" value="PostDao" style="rounded=1;whiteSpace=wrap;html=1;fillColor=#d5e8d4;strokeColor=#82b366;" parent="1" vertex="1">
          <mxGeometry x="170" y="455" width="106" height="70" as="geometry" />
        </mxCell>
        <mxCell id="a6WrI10o8rSXnvkZMW-7-13" value="UserDao" style="rounded=1;whiteSpace=wrap;html=1;fillColor=#d5e8d4;strokeColor=#82b366;" parent="1" vertex="1">
          <mxGeometry x="308" y="455" width="106" height="70" as="geometry" />
        </mxCell>
        <mxCell id="a6WrI10o8rSXnvkZMW-7-14" value="TagDao" style="rounded=1;whiteSpace=wrap;html=1;fillColor=#d5e8d4;strokeColor=#82b366;" parent="1" vertex="1">
          <mxGeometry x="440" y="455" width="106" height="70" as="geometry" />
        </mxCell>
        <mxCell id="a6WrI10o8rSXnvkZMW-7-15" value="RelationshipDao" style="rounded=1;whiteSpace=wrap;html=1;fillColor=#d5e8d4;strokeColor=#82b366;" parent="1" vertex="1">
          <mxGeometry x="580" y="455" width="106" height="70" as="geometry" />
        </mxCell>
        <mxCell id="a6WrI10o8rSXnvkZMW-7-16" value="&lt;span&gt;CommentController&lt;/span&gt;" style="rounded=1;whiteSpace=wrap;html=1;fillColor=#f8cecc;strokeColor=#b85450;" parent="1" vertex="1">
          <mxGeometry x="711" y="210" width="119" height="70" as="geometry" />
        </mxCell>
        <mxCell id="a6WrI10o8rSXnvkZMW-7-17" value="CommentService" style="rounded=1;whiteSpace=wrap;html=1;fillColor=#e1d5e7;strokeColor=#9673a6;" parent="1" vertex="1">
          <mxGeometry x="712" y="335" width="119" height="70" as="geometry" />
        </mxCell>
        <mxCell id="a6WrI10o8rSXnvkZMW-7-20" value="&lt;span&gt;Billboard&amp;amp;Promotion&lt;br&gt;Controller&lt;/span&gt;" style="rounded=1;whiteSpace=wrap;html=1;fillColor=#f8cecc;strokeColor=#b85450;" parent="1" vertex="1">
          <mxGeometry x="850" y="210" width="119" height="70" as="geometry" />
        </mxCell>
        <mxCell id="a6WrI10o8rSXnvkZMW-7-21" value="Billboard&amp;amp;Promotion&lt;br&gt;Service" style="rounded=1;whiteSpace=wrap;html=1;fillColor=#e1d5e7;strokeColor=#9673a6;" parent="1" vertex="1">
          <mxGeometry x="851" y="335" width="119" height="70" as="geometry" />
        </mxCell>
        <mxCell id="a6WrI10o8rSXnvkZMW-7-22" value="PostService" style="rounded=1;whiteSpace=wrap;html=1;fillColor=#e1d5e7;strokeColor=#9673a6;" parent="1" vertex="1">
          <mxGeometry x="171" y="335" width="106" height="70" as="geometry" />
        </mxCell>
        <mxCell id="a6WrI10o8rSXnvkZMW-7-23" value="UserService" style="rounded=1;whiteSpace=wrap;html=1;fillColor=#e1d5e7;strokeColor=#9673a6;" parent="1" vertex="1">
          <mxGeometry x="309" y="335" width="106" height="70" as="geometry" />
        </mxCell>
        <mxCell id="a6WrI10o8rSXnvkZMW-7-24" value="TagService" style="rounded=1;whiteSpace=wrap;html=1;fillColor=#e1d5e7;strokeColor=#9673a6;" parent="1" vertex="1">
          <mxGeometry x="441" y="335" width="106" height="70" as="geometry" />
        </mxCell>
        <mxCell id="a6WrI10o8rSXnvkZMW-7-25" value="RelationService" style="rounded=1;whiteSpace=wrap;html=1;fillColor=#e1d5e7;strokeColor=#9673a6;" parent="1" vertex="1">
          <mxGeometry x="581" y="335" width="106" height="70" as="geometry" />
        </mxCell>
        <mxCell id="a6WrI10o8rSXnvkZMW-7-26" value="CommentDao" style="rounded=1;whiteSpace=wrap;html=1;fillColor=#d5e8d4;strokeColor=#82b366;" parent="1" vertex="1">
          <mxGeometry x="711" y="455" width="119" height="70" as="geometry" />
        </mxCell>
        <mxCell id="a6WrI10o8rSXnvkZMW-7-27" value="Billboard&amp;amp;Promotion&lt;br&gt;Dao" style="rounded=1;whiteSpace=wrap;html=1;fillColor=#d5e8d4;strokeColor=#82b366;" parent="1" vertex="1">
          <mxGeometry x="850" y="455" width="119" height="70" as="geometry" />
        </mxCell>
        <mxCell id="a6WrI10o8rSXnvkZMW-7-30" value="MySQL" style="rounded=1;whiteSpace=wrap;html=1;fillColor=#f5f5f5;fontColor=#333333;strokeColor=#666666;" parent="1" vertex="1">
          <mxGeometry x="171" y="570" width="810" height="60" as="geometry" />
        </mxCell>
        <mxCell id="a6WrI10o8rSXnvkZMW-7-31" value="JwtFilter" style="rounded=1;whiteSpace=wrap;html=1;fillColor=#f8cecc;strokeColor=#b85450;" parent="1" vertex="1">
          <mxGeometry x="590" y="60" width="410" height="40" as="geometry" />
        </mxCell>
        <mxCell id="a6WrI10o8rSXnvkZMW-7-32" value="MD5utils" style="rounded=1;whiteSpace=wrap;html=1;fillColor=#bac8d3;strokeColor=#23445d;" parent="1" vertex="1">
          <mxGeometry x="1070" y="120" width="120" height="60" as="geometry" />
        </mxCell>
        <mxCell id="a6WrI10o8rSXnvkZMW-7-33" value="JWTutils" style="rounded=1;whiteSpace=wrap;html=1;fillColor=#bac8d3;strokeColor=#23445d;" parent="1" vertex="1">
          <mxGeometry x="1070" y="260" width="120" height="60" as="geometry" />
        </mxCell>
        <mxCell id="pLlUgZe4buy9df2eDDCw-10" value="&lt;b&gt;Controller层&lt;/b&gt;" style="rounded=0;whiteSpace=wrap;html=1;strokeColor=none;" vertex="1" parent="1">
          <mxGeometry x="70" y="215" width="100" height="60" as="geometry" />
        </mxCell>
        <mxCell id="pLlUgZe4buy9df2eDDCw-11" value="&lt;b&gt;Service层&lt;/b&gt;" style="rounded=0;whiteSpace=wrap;html=1;strokeColor=none;" vertex="1" parent="1">
          <mxGeometry x="71" y="340" width="100" height="60" as="geometry" />
        </mxCell>
        <mxCell id="pLlUgZe4buy9df2eDDCw-12" value="&lt;b&gt;Dao层&lt;/b&gt;" style="rounded=0;whiteSpace=wrap;html=1;strokeColor=none;" vertex="1" parent="1">
          <mxGeometry x="69" y="460" width="100" height="60" as="geometry" />
        </mxCell>
        <mxCell id="pLlUgZe4buy9df2eDDCw-35" value="" style="shape=flexArrow;endArrow=classic;html=1;rounded=0;shadow=0;strokeColor=#9673a6;entryX=0.783;entryY=0.008;entryDx=0;entryDy=0;entryPerimeter=0;exitX=0.5;exitY=1;exitDx=0;exitDy=0;fillColor=#e1d5e7;" edge="1" parent="1" source="a6WrI10o8rSXnvkZMW-7-31" target="pLlUgZe4buy9df2eDDCw-5">
          <mxGeometry width="50" height="50" relative="1" as="geometry">
            <mxPoint x="760" y="150" as="sourcePoint" />
            <mxPoint x="810" y="100" as="targetPoint" />
          </mxGeometry>
        </mxCell>
        <mxCell id="pLlUgZe4buy9df2eDDCw-36" value="" style="shape=flexArrow;endArrow=classic;html=1;rounded=0;shadow=0;strokeColor=#6c8ebf;entryX=0.75;entryY=1;entryDx=0;entryDy=0;exitX=0.431;exitY=0.008;exitDx=0;exitDy=0;exitPerimeter=0;fillColor=#dae8fc;" edge="1" parent="1" source="pLlUgZe4buy9df2eDDCw-5" target="a6WrI10o8rSXnvkZMW-7-5">
          <mxGeometry width="50" height="50" relative="1" as="geometry">
            <mxPoint x="460" y="180" as="sourcePoint" />
            <mxPoint x="510" y="130" as="targetPoint" />
          </mxGeometry>
        </mxCell>
        <mxCell id="pLlUgZe4buy9df2eDDCw-37" value="" style="shape=flexArrow;endArrow=classic;html=1;rounded=0;shadow=0;strokeColor=#d6b656;endWidth=10;endSize=2.8;width=6;fillColor=#fff2cc;" edge="1" parent="1">
          <mxGeometry width="50" height="50" relative="1" as="geometry">
            <mxPoint x="290" y="130" as="sourcePoint" />
            <mxPoint x="290" y="100" as="targetPoint" />
          </mxGeometry>
        </mxCell>
      </root>
    </mxGraphModel>
  </diagram>
</mxfile>
